<svg width="100" height="100" viewBox="0 0 100 100" fill="none" xmlns="http://www.w3.org/2000/svg">
<rect width="100" height="100" rx="7" fill="white"/>
<path d="M48 48H5V9C5 6.79086 6.79086 5 9 5H48V48ZM23.4521 13.0801L14.8125 41H19.0918L21.2754 33.96H31.6641L33.8125 41H38.1719L29.5322 13.0801H23.4521ZM28.1719 22.5195L30.5654 30.3604H22.3926L24.8125 22.5596L26.4922 16.4004L28.1719 22.5195Z" fill="#282828"/>
<path d="M91 5C93.2091 5 95 6.79086 95 9V48H52V5H91ZM64.3721 13.0801V16.6797H71.3721V37.4004H64.3721V41H82.5723V37.4004H75.6123V16.6797H82.5723V13.0801H64.3721Z" fill="#2B324C"/>
<path d="M95 91C95 93.2091 93.2091 95 91 95H52V52H95V91ZM73.4121 59.5996C71.4388 59.5996 69.7186 59.9463 68.252 60.6396C66.812 61.3063 65.6792 62.2404 64.8525 63.4404C64.0526 64.6137 63.6523 65.9605 63.6523 67.4805C63.6524 68.9203 63.9322 70.1068 64.4922 71.04C65.0789 71.9734 65.8391 72.7203 66.7725 73.2803C67.7324 73.8402 68.7727 74.3064 69.8926 74.6797C71.0391 75.0263 72.1722 75.3464 73.292 75.6396C74.4119 75.933 75.4388 76.2664 76.3721 76.6396C77.3321 77.013 78.0923 77.4934 78.6523 78.0801C79.2389 78.6667 79.5322 79.4405 79.5322 80.4004C79.5321 81.8133 79.0123 82.9198 77.9727 83.7197C76.9327 84.493 75.559 84.8798 73.8525 84.8799C71.8525 84.8799 70.2785 84.2934 69.1318 83.1201C67.9852 81.9201 67.4121 80.2266 67.4121 78.04H63.2119C63.2119 80.2533 63.6523 82.1331 64.5322 83.6797C65.4122 85.2263 66.652 86.4136 68.252 87.2402C69.852 88.0669 71.7326 88.4805 73.8926 88.4805C75.8122 88.4804 77.532 88.1469 79.0518 87.4805C80.5718 86.8138 81.7723 85.8797 82.6523 84.6797C83.5321 83.4532 83.9726 82.0134 83.9727 80.3604C83.9727 78.8137 83.6785 77.5462 83.0918 76.5596C82.5319 75.5466 81.7722 74.7467 80.8125 74.1602C79.8792 73.5468 78.8524 73.0664 77.7324 72.7197C76.6124 72.3464 75.4787 72.0264 74.332 71.7598C73.2121 71.4664 72.1719 71.1598 71.2119 70.8398C70.2787 70.4932 69.5192 70.0528 68.9326 69.5195C68.3727 68.9863 68.0919 68.2668 68.0918 67.3604C68.0918 66.0804 68.5857 65.067 69.5723 64.3203C70.5589 63.5737 71.8388 63.2002 73.4121 63.2002C74.5054 63.2002 75.4921 63.4132 76.3721 63.8398C77.2786 64.2398 77.9989 64.8264 78.5322 65.5996C79.0922 66.3463 79.3854 67.2536 79.4121 68.3203H83.6523C83.6257 66.507 83.1452 64.9597 82.2119 63.6797C81.3053 62.3732 80.0921 61.373 78.5723 60.6797C77.0523 59.9597 75.3321 59.5996 73.4121 59.5996Z" fill="#282828"/>
<path d="M48 95H9C6.79086 95 5 93.2091 5 91V52H48V95ZM27.1318 59.5996C24.7053 59.5997 22.5723 60.1871 20.7324 61.3604C18.9191 62.5337 17.5055 64.2004 16.4922 66.3604C15.4789 68.5203 14.9727 71.0668 14.9727 74C14.9727 76.8265 15.4522 79.333 16.4121 81.5195C17.3988 83.6795 18.7857 85.3863 20.5723 86.6396C22.3856 87.8663 24.5193 88.4805 26.9727 88.4805C29.1325 88.4804 31.0124 88.0802 32.6123 87.2803C34.239 86.4536 35.5322 85.3065 36.4922 83.8398C37.4521 82.3465 38.0252 80.6129 38.2119 78.6396H33.5322C33.4256 79.893 33.0788 80.9866 32.4922 81.9199C31.9322 82.8533 31.1853 83.5868 30.252 84.1201C29.3188 84.6266 28.2257 84.8798 26.9727 84.8799C25.5327 84.8799 24.2385 84.4529 23.0918 83.5996C21.9453 82.7196 21.0387 81.4663 20.3721 79.8398C19.7321 78.2132 19.4121 76.2799 19.4121 74.04C19.4121 71.8001 19.7321 69.8668 20.3721 68.2402C21.0121 66.6136 21.9051 65.3729 23.0518 64.5195C24.225 63.6396 25.572 63.2003 27.0918 63.2002C28.8517 63.2002 30.2921 63.7466 31.4121 64.8398C32.5321 65.9065 33.1988 67.3335 33.4121 69.1201H38.0518C37.8918 67.1468 37.3053 65.4534 36.292 64.04C35.3053 62.6001 34.0121 61.5064 32.4121 60.7598C30.8388 59.9865 29.0784 59.5996 27.1318 59.5996Z" fill="#2B324C"/>
</svg>
